<mxfile host="app.diagrams.net" modified="2021-04-18T08:15:14.998Z" agent="5.0 (Macintosh; Intel Mac OS X 10_15_6) AppleWebKit/605.1.15 (KHTML, like Gecko) Version/14.0.3 Safari/605.1.15" etag="59oAwtBK2lc41w--DX9d" version="14.6.1" type="github">
  <diagram id="IZ1FwgdXrfkhKk9LSjW8" name="Page-1">
    <mxGraphModel dx="946" dy="645" grid="1" gridSize="10" guides="1" tooltips="1" connect="1" arrows="1" fold="1" page="1" pageScale="1" pageWidth="827" pageHeight="1169" math="0" shadow="0">
      <root>
        <mxCell id="0" />
        <mxCell id="1" parent="0" />
        <mxCell id="ENgCUmA1FsKtjw5jNyJK-1" value="" style="verticalLabelPosition=bottom;html=1;verticalAlign=top;align=center;strokeColor=none;fillColor=#00BEF2;shape=mxgraph.azure.laptop;pointerEvents=1;" vertex="1" parent="1">
          <mxGeometry x="300" y="100" width="130" height="90" as="geometry" />
        </mxCell>
        <mxCell id="ENgCUmA1FsKtjw5jNyJK-2" value="Веб сервис" style="text;html=1;strokeColor=none;fillColor=none;align=center;verticalAlign=middle;whiteSpace=wrap;rounded=0;" vertex="1" parent="1">
          <mxGeometry x="300" y="70" width="130" height="20" as="geometry" />
        </mxCell>
        <mxCell id="ENgCUmA1FsKtjw5jNyJK-20" value="Mobile client" style="outlineConnect=0;fontColor=#232F3E;gradientColor=none;strokeColor=#232F3E;fillColor=#ffffff;dashed=0;verticalLabelPosition=bottom;verticalAlign=top;align=center;html=1;fontSize=12;fontStyle=0;aspect=fixed;shape=mxgraph.aws4.resourceIcon;resIcon=mxgraph.aws4.mobile_client;" vertex="1" parent="1">
          <mxGeometry x="40" y="290" width="60" height="60" as="geometry" />
        </mxCell>
        <mxCell id="ENgCUmA1FsKtjw5jNyJK-21" value="" style="image;html=1;image=img/lib/clip_art/computers/Server_128x128.png" vertex="1" parent="1">
          <mxGeometry x="240" y="290" width="80" height="80" as="geometry" />
        </mxCell>
        <mxCell id="ENgCUmA1FsKtjw5jNyJK-22" value="" style="shape=cylinder3;whiteSpace=wrap;html=1;boundedLbl=1;backgroundOutline=1;size=15;" vertex="1" parent="1">
          <mxGeometry x="414" y="290" width="60" height="80" as="geometry" />
        </mxCell>
        <mxCell id="ENgCUmA1FsKtjw5jNyJK-23" value="Здесь крутится &amp;nbsp;скрипт анализатора который парсит видео в данные и сохраняет в бд" style="text;html=1;strokeColor=none;fillColor=none;align=center;verticalAlign=middle;whiteSpace=wrap;rounded=0;" vertex="1" parent="1">
          <mxGeometry x="200" y="340" width="160" height="110" as="geometry" />
        </mxCell>
        <mxCell id="ENgCUmA1FsKtjw5jNyJK-24" value="" style="shape=flexArrow;endArrow=classic;startArrow=classic;html=1;" edge="1" parent="1">
          <mxGeometry width="50" height="50" relative="1" as="geometry">
            <mxPoint x="325" y="329.5" as="sourcePoint" />
            <mxPoint x="405" y="329.5" as="targetPoint" />
            <Array as="points">
              <mxPoint x="365" y="329.5" />
            </Array>
          </mxGeometry>
        </mxCell>
        <mxCell id="ENgCUmA1FsKtjw5jNyJK-25" value="" style="shape=flexArrow;endArrow=classic;html=1;" edge="1" parent="1">
          <mxGeometry width="50" height="50" relative="1" as="geometry">
            <mxPoint x="130" y="330" as="sourcePoint" />
            <mxPoint x="230" y="330" as="targetPoint" />
            <Array as="points">
              <mxPoint x="170" y="330" />
              <mxPoint x="190" y="330" />
            </Array>
          </mxGeometry>
        </mxCell>
        <mxCell id="ENgCUmA1FsKtjw5jNyJK-26" value="" style="shape=flexArrow;endArrow=classic;html=1;" edge="1" parent="1">
          <mxGeometry width="50" height="50" relative="1" as="geometry">
            <mxPoint x="290" y="270" as="sourcePoint" />
            <mxPoint x="340" y="220" as="targetPoint" />
          </mxGeometry>
        </mxCell>
        <mxCell id="ENgCUmA1FsKtjw5jNyJK-27" value="" style="rounded=1;whiteSpace=wrap;html=1;" vertex="1" parent="1">
          <mxGeometry x="10" width="220" height="100" as="geometry" />
        </mxCell>
        <mxCell id="ENgCUmA1FsKtjw5jNyJK-28" value="Поведения когда тестировщик загружают видео на бэк сервер" style="text;html=1;strokeColor=none;fillColor=none;align=center;verticalAlign=middle;whiteSpace=wrap;rounded=0;" vertex="1" parent="1">
          <mxGeometry x="20" y="10" width="200" height="80" as="geometry" />
        </mxCell>
      </root>
    </mxGraphModel>
  </diagram>
</mxfile>
